<svg xmlns="http://www.w3.org/2000/svg" viewBox="0 0 1200 1200"><defs><style>.cls-1{fill:#96b2ed;}.cls-2{fill:#2d4ca8;}.cls-3{fill:#fff;}</style></defs><g id="logo"><circle class="cls-1" cx="608.89" cy="589.14" r="486.05"/></g><g id="Calque_4" data-name="Calque 4"><path class="cls-2" d="M729.37,559.41a21.71,21.71,0,0,1-21.67-21.69v-69A21.7,21.7,0,0,1,729.37,447a22,22,0,0,1,2.92.2l255.09,34.5a21.69,21.69,0,0,1,0,43L732.29,559.21a22,22,0,0,1-2.92.2Z"/><path d="M729.37,461a7.37,7.37,0,0,1,1,.07l255.1,34.51c8.87,1.2,8.87,14,0,15.23l-255.1,34.5a7.4,7.4,0,0,1-1,.08,7.69,7.69,0,0,1-7.67-7.69v-69a7.69,7.69,0,0,1,7.67-7.69m0-28a35.72,35.72,0,0,0-35.67,35.69v69a35.72,35.72,0,0,0,35.67,35.69,34.84,34.84,0,0,0,4.79-.33l255.1-34.5a35.69,35.69,0,0,0,0-70.73L734.17,433.34a36.74,36.74,0,0,0-4.8-.32Z"/><circle class="cls-2" cx="614.87" cy="518.36" r="163.49" transform="translate(-186.44 586.6) rotate(-45)"/><path d="M614.87,368.86a149.5,149.5,0,1,1-149.5,149.5,149.49,149.49,0,0,1,149.5-149.5m0-28a177,177,0,1,0,69.09,14,176.47,176.47,0,0,0-69.09-14Z"/><path d="M711.47,463.85c0,21.74-23,39.36-51.29,39.36A62.84,62.84,0,0,1,632.51,497a52.63,52.63,0,0,1-4.85-2.7c-11.46-7.23-18.77-18.18-18.77-30.45s7.3-23.2,18.75-30.41a54.77,54.77,0,0,1,10-5,64.22,64.22,0,0,1,22.51-4C688.51,424.5,711.47,442.12,711.47,463.85Z"/><path class="cls-3" d="M666.7,477.44c4.06,0,7.36,3.59,7.36,8a8.45,8.45,0,0,1-1.16,4.32,7.66,7.66,0,0,1-.5.76,7,7,0,0,1-11.4,0,8.44,8.44,0,0,1-.93-1.57,8.65,8.65,0,0,1-.74-3.51C659.33,481,662.63,477.44,666.7,477.44Z"/><path class="cls-3" d="M684.92,437.23c8.13,0,14.72,7.16,14.72,16a17,17,0,0,1-2.33,8.63,15.27,15.27,0,0,1-1,1.51,14,14,0,0,1-22.76,0,16.32,16.32,0,0,1-1.85-3.13,17.18,17.18,0,0,1-1.49-7C670.2,444.39,676.79,437.23,684.92,437.23Z"/><path class="cls-2" d="M600,1098.29A507.55,507.55,0,0,1,258.75,967c-.13-3.93-.19-7.89-.19-11.84a354.12,354.12,0,0,1,2.61-42.95C282.58,737,432.07,604.84,608.89,604.84A350.42,350.42,0,0,1,954.13,895.38a352.75,352.75,0,0,1,5,54.63A507.51,507.51,0,0,1,600,1098.29Z"/><path d="M608.89,618.84A335.94,335.94,0,0,1,945,944.28,495.16,495.16,0,0,1,272.6,960.6c0-1.81,0-3.62,0-5.43A336.75,336.75,0,0,1,487.12,641.55a334.82,334.82,0,0,1,121.77-22.71m0-28c-186.09,0-339.6,139.53-361.61,319.67a365.68,365.68,0,0,0-2.72,44.66q0,9.18.45,18.24a521.26,521.26,0,0,0,355,138.88c146.15,0,278.3-59.93,373.22-156.55v-.57A365.93,365.93,0,0,0,967.93,893c-29.49-171.6-179-302.17-359-302.17Z"/><path class="cls-2" d="M600,1126.29a535.52,535.52,0,1,1,211.33-43.17A535.43,535.43,0,0,1,600,1126.29ZM600,126A463,463,0,0,0,257.62,901.07c4.83,5.29,9.83,10.53,14.88,15.57a462.69,462.69,0,0,0,655,0c10.39-10.39,20.37-21.35,29.64-32.56A463,463,0,0,0,600,126Z"/><path d="M600,66c288.93,0,523.16,234.22,523.16,523.16a521.43,521.43,0,0,1-149.94,366.6C878.3,1052.36,746.15,1112.29,600,1112.29A521.26,521.26,0,0,1,245,973.41C141.6,877.85,76.84,741.06,76.84,589.14,76.84,300.2,311.07,66,600,66m0,1000.31A475.44,475.44,0,0,0,937.4,926.54q16.13-16.12,30.53-33.53a477.46,477.46,0,1,0-720.65,17.5q7.46,8.16,15.32,16A475.44,475.44,0,0,0,600,1066.29M600,38a548.67,548.67,0,0,0-308.18,94.14A552.69,552.69,0,0,0,92.16,374.59,547.7,547.7,0,0,0,48.84,589.14,554.74,554.74,0,0,0,61.2,705.73a548.5,548.5,0,0,0,91.18,205A551.64,551.64,0,0,0,600,1140.29a548.71,548.71,0,0,0,311.24-96.23A553.43,553.43,0,0,0,1108.8,801.38,550.47,550.47,0,0,0,1057,281,552.69,552.69,0,0,0,814.54,81.3,547.87,547.87,0,0,0,600,38Zm0,1000.31A447.51,447.51,0,0,1,282.39,906.74c-4.88-4.89-9.74-10-14.44-15.12a449.43,449.43,0,1,1,678.42-16.47c-9,10.88-18.69,21.51-28.77,31.59A447.46,447.46,0,0,1,600,1038.29Z"/></g></svg>